<svg xmlns="http://www.w3.org/2000/svg" xmlns:xlink="http://www.w3.org/1999/xlink" version="1.1" x="0px" y="0px" viewBox="0 0 64 80" style="enable-background:new 0 0 64 64;" xml:space="preserve"><path d="M60,54.9L42,37c2.6-3.6,4-7.9,4-12.5C46.1,12.7,36.4,3,24.5,3C12.7,3,3,12.7,3,24.5s9.7,21.5,21.5,21.5  c4.5,0,8.8-1.4,12.5-4L54.9,60c0.7,0.7,1.6,1,2.5,1c1,0,1.9-0.4,2.5-1C61.3,58.6,61.3,56.3,60,54.9z M36.1,36.1  c-3.1,3.1-7.2,4.8-11.6,4.8c-9,0-16.4-7.3-16.4-16.4C8.2,20.2,9.9,16,13,13c3.1-3.1,7.2-4.8,11.6-4.8c9,0,16.4,7.3,16.4,16.4  C40.9,28.9,39.2,33,36.1,36.1z"/></svg>