<svg xmlns="http://www.w3.org/2000/svg" version="1.1" xmlns:xlink="http://www.w3.org/1999/xlink" xmlns:svgjs="http://svgjs.dev/svgjs" width="1900" height="1000" preserveAspectRatio="none" viewBox="0 0 1900 1000"><g mask="url(&quot;#SvgjsMask1299&quot;)" fill="none"><path d="M1927.191,1289.602C2026.565,1293.904,2105.718,1215.182,2154.096,1128.273C2200.97,1044.066,2215.885,941.871,2166.984,858.825C2118.704,776.833,2022.228,738.277,1927.191,742.931C1839.9,747.206,1765.941,803.317,1724.898,880.476C1686.371,952.906,1695.579,1036.457,1731.941,1109.997C1773.95,1194.959,1832.5,1285.503,1927.191,1289.602" fill="rgba(23, 81, 52, 0.4)" class="triangle-float1"></path><path d="M745.448,520.747C790.555,518.782,834.019,502.307,858.58,464.422C885.532,422.848,895.404,369.729,871.479,326.342C846.849,281.676,796.353,256.042,745.448,259.264C699.149,262.195,668.474,301.112,644.322,340.721C618.696,382.747,589.74,432.17,613.847,475.086C638.22,518.475,695.729,522.913,745.448,520.747" fill="rgba(23, 81, 52, 0.4)" class="triangle-float2"></path><path d="M163.102,826.174C244.034,830.997,332.558,816.697,376.309,748.439C422.818,675.879,415.975,578.591,367.451,507.363C323.878,443.402,240.484,436.78,163.102,435.472C82.319,434.107,-12.116,430.898,-53.57,500.248C-95.6,570.562,-55.557,657.185,-10.206,725.404C29.446,785.05,91.606,821.913,163.102,826.174" fill="rgba(23, 81, 52, 0.4)" class="triangle-float3"></path><path d="M1291.989,203.771C1320.629,204.121,1344.597,184.463,1358.937,159.669C1373.299,134.837,1378.233,104.347,1363.849,79.528C1349.5,54.771,1320.602,43.82,1291.989,44.156C1264.016,44.484,1236.722,56.808,1222.991,81.181C1209.482,105.16,1214.318,134.082,1227.817,158.066C1241.623,182.595,1263.844,203.427,1291.989,203.771" fill="rgba(23, 81, 52, 0.4)" class="triangle-float2"></path></g><defs><mask id="SvgjsMask1299"><rect width="1900" height="1000" fill="#ffffff"></rect></mask></defs></svg>