<svg xmlns="http://www.w3.org/2000/svg" version="1.1" xmlns:xlink="http://www.w3.org/1999/xlink" xmlns:svgjs="http://svgjs.dev/svgjs" width="1900" height="1000" preserveAspectRatio="none" viewBox="0 0 1900 1000"><g mask="url(&quot;#SvgjsMask1290&quot;)" fill="none"><path d="M572.846,654.866C599.252,654.527,623.362,641.423,637.567,619.161C653.037,594.916,661.179,564.004,646.662,539.177C632.245,514.521,601.401,507.861,572.846,508.473C545.56,509.058,518.395,518.848,504.318,542.229C489.826,566.298,490.576,596.86,505.179,620.862C519.242,643.976,545.792,655.214,572.846,654.866" fill="rgba(23, 81, 52, 0.4)" class="triangle-float1"></path><path d="M848.003,1041.35C918.598,1044.365,987.157,1015.125,1026.682,956.555C1071.653,889.915,1094.835,803.706,1055.806,733.42C1015.91,661.574,930.155,632.653,848.003,634.783C769.799,636.811,693.1,673.788,658.063,743.733C625.769,808.202,655.151,881.562,693.942,942.343C729.14,997.495,782.636,1038.558,848.003,1041.35" fill="rgba(23, 81, 52, 0.4)" class="triangle-float2"></path><path d="M1114.169,784.291C1172.158,783.994,1236.475,777.609,1266.385,727.928C1296.943,677.17,1280.565,612.207,1247.274,563.198C1218.017,520.127,1166.193,505.979,1114.169,503.842C1056.803,501.485,993.168,504.093,960.67,551.424C924.657,603.874,924.213,676.38,959.228,729.501C991.542,778.523,1055.456,784.592,1114.169,784.291" fill="rgba(23, 81, 52, 0.4)" class="triangle-float3"></path><path d="M92.999,884.872C123.274,886.231,157.196,881.69,172.612,855.599C188.202,829.214,177.55,796.126,160.471,770.679C145.455,748.305,119.93,736.084,92.999,736.974C67.604,737.813,46.036,753.188,32.831,774.896C18.999,797.634,12.1,825.617,24.874,848.966C38.079,873.102,65.515,883.638,92.999,884.872" fill="rgba(23, 81, 52, 0.4)" class="triangle-float3"></path><path d="M1833.42,594.455C1904.819,591.578,1947.196,522.739,1981.59,460.104C2014.226,400.669,2042.705,332,2010.217,272.484C1976.724,211.127,1903.297,190.568,1833.42,188.664C1759.2,186.641,1677.279,198.687,1639.105,262.37C1600.178,327.31,1624.776,407.594,1663.013,472.942C1700.776,537.479,1758.708,597.466,1833.42,594.455" fill="rgba(23, 81, 52, 0.4)" class="triangle-float3"></path></g><defs><mask id="SvgjsMask1290"><rect width="1900" height="1000" fill="#ffffff"></rect></mask></defs></svg>