<svg xmlns="http://www.w3.org/2000/svg" version="1.1" xmlns:xlink="http://www.w3.org/1999/xlink" xmlns:svgjs="http://svgjs.dev/svgjs" width="1900" height="1000" preserveAspectRatio="none" viewBox="0 0 1900 1000"><g mask="url(&quot;#SvgjsMask1279&quot;)" fill="none"><path d="M347.224,824.15C389.918,826.785,435.914,819.592,460.14,784.339C487.338,744.76,491.832,691.094,466.839,650.087C442.66,610.417,393.522,595.23,347.224,599.076C307.115,602.408,276.485,631.866,257.704,667.462C240.316,700.417,237.637,739.392,256.121,771.745C274.748,804.348,309.746,821.837,347.224,824.15" fill="rgba(255, 193, 0, 0.4)" class="triangle-float2"></path><path d="M573.22,1318.072C657.063,1318.717,738.16,1285.807,784.517,1215.943C836.439,1137.692,857.65,1038.07,814.28,954.775C767.896,865.691,673.566,805.883,573.22,810.135C478.72,814.139,408.168,889.583,365.127,973.808C326.282,1049.822,323.321,1139.679,367.48,1212.734C410.197,1283.405,490.644,1317.437,573.22,1318.072" fill="rgba(255, 193, 0, 0.4)" class="triangle-float3"></path><path d="M700.514,980.364C762.571,980.95,809.675,931.651,840.85,877.99C872.209,824.013,890.021,759.588,860.835,704.406C829.981,646.07,766.446,609.824,700.514,612.66C638.685,615.32,590.847,662.268,562.427,717.242C536.478,767.435,538.436,825.35,564.693,875.383C593.192,929.688,639.188,979.785,700.514,980.364" fill="rgba(255, 193, 0, 0.4)" class="triangle-float2"></path><path d="M1898.768,704.19C1983.64,702.434,2041.994,630.906,2086.625,558.695C2134.636,481.014,2186.292,389.642,2142.809,309.339C2098.099,226.77,1992.539,206.903,1898.768,211.77C1814.245,216.157,1736.816,259.004,1694.985,332.581C1653.634,405.314,1656.716,493.398,1696.945,566.758C1738.89,643.246,1811.553,705.995,1898.768,704.19" fill="rgba(255, 193, 0, 0.4)" class="triangle-float2"></path><path d="M1255.707,477.507C1334.096,477.62,1397.39,420.457,1435.747,352.094C1473.174,285.389,1484.384,204.442,1446.059,138.248C1407.805,72.178,1332.017,38.819,1255.707,41.139C1183.37,43.338,1120.569,86.56,1084.397,149.242C1048.239,211.9,1043.093,287.443,1076.562,351.577C1112.757,420.934,1177.474,477.395,1255.707,477.507" fill="rgba(255, 193, 0, 0.4)" class="triangle-float2"></path><path d="M229.535,110.621C263.114,110.662,285.745,80.294,302.222,51.035C318.295,22.493,330.914,-11.641,314.273,-39.855C297.81,-67.767,261.927,-71.275,229.535,-72.201C194.731,-73.196,153.616,-74.966,135.964,-44.954C118.191,-14.736,139.086,20.815,157.155,50.857C174.439,79.594,196.001,110.58,229.535,110.621" fill="rgba(255, 193, 0, 0.4)" class="triangle-float2"></path></g><defs><mask id="SvgjsMask1279"><rect width="1900" height="1000" fill="#ffffff"></rect></mask></defs></svg>