<svg xmlns="http://www.w3.org/2000/svg" version="1.1" xmlns:xlink="http://www.w3.org/1999/xlink" xmlns:svgjs="http://svgjs.dev/svgjs" width="1900" height="1000" preserveAspectRatio="none" viewBox="0 0 1900 1000"><g mask="url(&quot;#SvgjsMask1092&quot;)" fill="none"><path d="M818.006,955.992C855.122,958.291,891.699,939.532,909.897,907.102C927.759,875.27,922.862,835.571,902.625,805.194C884.408,777.848,850.841,770.397,818.006,769.165C782.048,767.816,739.686,767.281,721.625,798.403C703.529,829.585,725.113,866.064,743.923,896.82C761.597,925.718,784.197,953.898,818.006,955.992" fill="rgba(207, 158, 5, 0.4)" class="triangle-float3"></path><path d="M801.929,582.482C856.568,582.27,895.982,535.54,921.634,487.297C945.457,442.494,953.546,389.241,927.985,345.406C902.592,301.859,852.332,282.853,801.929,282.014C749.767,281.146,694.843,296.122,668.389,341.086C641.639,386.553,655.066,442.074,680.601,488.234C707.17,536.263,747.041,582.695,801.929,582.482" fill="rgba(207, 158, 5, 0.4)" class="triangle-float2"></path><path d="M1792.727,720.475C1820.042,721.875,1848.164,711.046,1861.714,687.287C1875.163,663.705,1869.308,634.566,1854.812,611.612C1841.348,590.292,1817.942,578.142,1792.727,578.046C1767.332,577.95,1742.261,588.999,1729.82,611.138C1717.596,632.892,1722.546,659.163,1734.99,680.792C1747.472,702.487,1767.73,719.194,1792.727,720.475" fill="rgba(207, 158, 5, 0.4)" class="triangle-float1"></path><path d="M1527.521,809.133C1617.878,810.858,1688.653,743.743,1737.062,667.429C1790.254,583.575,1836.517,482.619,1790.444,394.652C1742.023,302.202,1631.716,261.437,1527.521,267.359C1432.854,272.739,1354.122,337.047,1311.723,421.86C1273.6,498.119,1289.892,585.212,1331.391,659.687C1374.271,736.64,1439.443,807.452,1527.521,809.133" fill="rgba(207, 158, 5, 0.4)" class="triangle-float1"></path></g><defs><mask id="SvgjsMask1092"><rect width="1900" height="1000" fill="#ffffff"></rect></mask></defs></svg>